<?xml version="1.0" encoding="utf-8"?>
<!-- Generator: Adobe Illustrator 19.0.0, SVG Export Plug-In . SVG Version: 6.00 Build 0)  -->
<svg version="1.1" id="Layer_1" xmlns="http://www.w3.org/2000/svg" xmlns:xlink="http://www.w3.org/1999/xlink" x="0px" y="0px"
	 viewBox="0 0 195 194.7" style="enable-background:new 0 0 195 194.7;" xml:space="preserve">
<style type="text/css">
	.st0{fill:#A5CEEE;}
	.st1{clip-path:url(#XMLID_115_);fill:#FF9212;}
	.st2{clip-path:url(#XMLID_115_);fill:#FFF8ED;}
	.st3{fill:#591200;}
	.st4{clip-path:url(#XMLID_116_);fill:#591200;}
</style>
<circle id="XMLID_113_" class="st0" cx="97.5" cy="97.4" r="97.3"/>
<g>
	<g>
		<defs>
			<rect id="XMLID_108_" x="45" y="44.8" width="104.9" height="105.2"/>
		</defs>
		<clipPath id="XMLID_115_">
			<use xlink:href="#XMLID_108_"  style="overflow:visible;"/>
		</clipPath>
		<path class="st1" d="M92.8,101.9c1.1,1.1,2.4,2.1,3.8,2.9c-13.5,14.4-23.1,34.1-28.6,39.6c-4.9,4.9-12.8,4.9-17.7,0
			c-4.9-4.9-4.9-12.8,0-17.7c5.5-5.5,25.2-15.1,39.6-28.6C90.7,99.5,91.7,100.8,92.8,101.9L92.8,101.9z M92.8,101.9"/>
		<path class="st2" d="M96.7,104.8c-1.4-0.8-2.7-1.7-3.8-2.9c-1.1-1.1-2.1-2.4-2.9-3.8c-5.8-10.3-1.8-26.4,10.4-38.6
			c13.8-13.8,32.7-17.1,42.4-7.5c9.6,9.6,6.3,28.6-7.5,42.4C123.1,106.5,106.9,110.6,96.7,104.8L96.7,104.8z M96.7,104.8"/>
	</g>
	<path class="st3" d="M117.8,68.4c-0.5,0-0.9,0.2-1.3,0.5c-0.7,0.7-0.7,1.8,0,2.6c0.3,0.3,0.8,0.5,1.3,0.5c0.5,0,0.9-0.2,1.3-0.5
		c0.3-0.3,0.5-0.8,0.5-1.3c0-0.5-0.2-0.9-0.5-1.3C118.7,68.6,118.2,68.4,117.8,68.4L117.8,68.4z M117.8,68.4"/>
	<path class="st3" d="M111,61.7c-0.5,0-0.9,0.2-1.3,0.5c-0.7,0.7-0.7,1.8,0,2.5c0.3,0.3,0.8,0.5,1.3,0.5c0.5,0,0.9-0.2,1.3-0.5
		c0.7-0.7,0.7-1.8,0-2.5C112,61.9,111.5,61.7,111,61.7L111,61.7z M111,61.7"/>
	<path class="st3" d="M131.2,81.9c-0.5,0-0.9,0.2-1.3,0.5c-0.7,0.7-0.7,1.8,0,2.6c0.3,0.3,0.8,0.5,1.3,0.5c0.5,0,0.9-0.2,1.3-0.5
		c0.7-0.7,0.7-1.8,0-2.5C132.2,82.1,131.7,81.9,131.2,81.9L131.2,81.9z M131.2,81.9"/>
	<path class="st3" d="M124.5,75.2c-0.5,0-0.9,0.2-1.3,0.5c-0.3,0.3-0.5,0.8-0.5,1.3c0,0.5,0.2,0.9,0.5,1.3c0.3,0.3,0.8,0.5,1.3,0.5
		c0.5,0,0.9-0.2,1.3-0.5c0.7-0.7,0.7-1.8,0-2.6C125.4,75.4,125,75.2,124.5,75.2L124.5,75.2z M124.5,75.2"/>
	<path class="st3" d="M131.4,55.2c-0.5,0-0.9,0.2-1.3,0.5c-0.7,0.7-0.7,1.8,0,2.6c0.3,0.3,0.8,0.5,1.3,0.5c0.5,0,0.9-0.2,1.3-0.5
		c0.3-0.3,0.5-0.8,0.5-1.3c0-0.5-0.2-0.9-0.5-1.3C132.4,55.4,131.9,55.2,131.4,55.2L131.4,55.2z M131.4,55.2"/>
	<path class="st3" d="M139.1,62.1c-0.3-0.3-0.8-0.5-1.3-0.5c-0.5,0-0.9,0.2-1.3,0.5c-0.3,0.3-0.5,0.8-0.5,1.3c0,0.5,0.2,0.9,0.5,1.3
		c0.3,0.3,0.8,0.5,1.3,0.5c0.5,0,0.9-0.2,1.3-0.5C139.8,63.9,139.8,62.8,139.1,62.1L139.1,62.1z M139.1,62.1"/>
	<path class="st3" d="M97.8,88.8c-0.5,0-0.9,0.2-1.3,0.5c-0.3,0.3-0.5,0.8-0.5,1.3c0,0.5,0.2,0.9,0.5,1.3c0.3,0.3,0.8,0.5,1.3,0.5
		c0.5,0,0.9-0.2,1.3-0.5c0.3-0.3,0.5-0.8,0.5-1.3c0-0.5-0.2-0.9-0.5-1.3C98.7,89,98.2,88.8,97.8,88.8L97.8,88.8z M97.8,88.8"/>
	<path class="st3" d="M104.1,95.2c-0.5,0-0.9,0.2-1.3,0.5c-0.7,0.7-0.7,1.8,0,2.6c0.3,0.3,0.8,0.5,1.3,0.5c0.5,0,0.9-0.2,1.3-0.5
		c0.3-0.3,0.5-0.8,0.5-1.3c0-0.5-0.2-0.9-0.5-1.3C105.1,95.4,104.6,95.2,104.1,95.2L104.1,95.2z M104.1,95.2"/>
	<path class="st3" d="M119.5,56.7c-0.5,0-0.9,0.2-1.3,0.5c-0.3,0.3-0.5,0.8-0.5,1.3c0,0.5,0.2,0.9,0.5,1.3c0.3,0.3,0.8,0.5,1.3,0.5
		c0.5,0,0.9-0.2,1.3-0.5c0.7-0.7,0.7-1.8,0-2.6C120.5,56.9,120,56.7,119.5,56.7L119.5,56.7z M119.5,56.7"/>
	<path class="st3" d="M129.1,65.6c-0.3-0.3-0.8-0.5-1.3-0.5c-0.5,0-0.9,0.2-1.3,0.5c-0.7,0.7-0.7,1.8,0,2.6c0.3,0.3,0.8,0.5,1.3,0.5
		c0.5,0,0.9-0.2,1.3-0.5c0.3-0.3,0.5-0.8,0.5-1.3C129.7,66.4,129.5,65.9,129.1,65.6L129.1,65.6z M129.1,65.6"/>
	<path class="st3" d="M136.3,73.5c-0.5,0-0.9,0.2-1.3,0.5c-0.3,0.3-0.5,0.8-0.5,1.3c0,0.5,0.2,0.9,0.5,1.3c0.3,0.3,0.8,0.5,1.3,0.5
		c0.5,0,0.9-0.2,1.3-0.5c0.7-0.7,0.7-1.8,0-2.6C137.2,73.6,136.7,73.5,136.3,73.5L136.3,73.5z M136.3,73.5"/>
	<path class="st3" d="M99.3,76.9c-0.5,0-0.9,0.2-1.3,0.5c-0.3,0.3-0.5,0.8-0.5,1.3c0,0.5,0.2,0.9,0.5,1.3c0.3,0.3,0.8,0.5,1.3,0.5
		c0.5,0,0.9-0.2,1.3-0.5c0.7-0.7,0.7-1.8,0-2.5C100.3,77.1,99.8,76.9,99.3,76.9L99.3,76.9z M99.3,76.9"/>
	<path class="st3" d="M107.7,85.3c-0.5,0-0.9,0.2-1.3,0.5c-0.3,0.3-0.5,0.8-0.5,1.3c0,0.5,0.2,0.9,0.5,1.3c0.3,0.3,0.8,0.5,1.3,0.5
		c0.5,0,0.9-0.2,1.3-0.5c0.3-0.3,0.5-0.8,0.5-1.3c0-0.5-0.2-0.9-0.5-1.3C108.6,85.5,108.1,85.3,107.7,85.3L107.7,85.3z M107.7,85.3"
		/>
	<path class="st3" d="M116.1,93.7c-0.5,0-0.9,0.2-1.3,0.5c-0.3,0.3-0.5,0.8-0.5,1.3s0.2,0.9,0.5,1.3c0.3,0.3,0.8,0.5,1.3,0.5
		c0.5,0,0.9-0.2,1.3-0.5c0.7-0.7,0.7-1.8,0-2.5C117,93.9,116.5,93.7,116.1,93.7L116.1,93.7z M116.1,93.7"/>
	<path class="st3" d="M111,75.2c-0.5,0-0.9,0.2-1.3,0.5c-0.7,0.7-0.7,1.8,0,2.5c0.3,0.3,0.8,0.5,1.3,0.5c0.5,0,0.9-0.2,1.3-0.5
		c0.7-0.7,0.7-1.8,0-2.5C112,75.4,111.5,75.2,111,75.2L111,75.2z M111,75.2"/>
	<path class="st3" d="M104.3,72c0.5,0,0.9-0.2,1.3-0.5c0.7-0.7,0.7-1.8,0-2.6c-0.3-0.3-0.8-0.5-1.3-0.5c-0.5,0-0.9,0.2-1.3,0.5
		c-0.3,0.3-0.5,0.8-0.5,1.3c0,0.5,0.2,0.9,0.5,1.3C103.4,71.9,103.8,72,104.3,72L104.3,72z M104.3,72"/>
	<path class="st3" d="M124.5,88.6c-0.5,0-0.9,0.2-1.3,0.5c-0.3,0.3-0.5,0.8-0.5,1.3c0,0.5,0.2,0.9,0.5,1.3c0.3,0.3,0.8,0.5,1.3,0.5
		c0.5,0,0.9-0.2,1.3-0.5c0.7-0.7,0.7-1.8,0-2.6C125.4,88.8,125,88.6,124.5,88.6L124.5,88.6z M124.5,88.6"/>
	<g>
		<defs>
			<rect id="XMLID_55_" x="45" y="44.8" width="104.9" height="105.2"/>
		</defs>
		<clipPath id="XMLID_116_">
			<use xlink:href="#XMLID_55_"  style="overflow:visible;"/>
		</clipPath>
		<path class="st4" d="M117.8,81.9c-0.5,0-0.9,0.2-1.3,0.5c-0.7,0.7-0.7,1.8,0,2.6c0.3,0.3,0.8,0.5,1.3,0.5c0.5,0,0.9-0.2,1.3-0.5
			c0.3-0.3,0.5-0.8,0.5-1.3c0-0.5-0.2-0.9-0.5-1.3C118.7,82.1,118.2,81.9,117.8,81.9L117.8,81.9z M117.8,81.9"/>
		<path class="st4" d="M143.9,50.9c-5.1-5.1-12.6-7-21.1-5.5c-8.3,1.5-16.7,6.1-23.6,13c-6.9,6.9-11.5,15.3-13,23.6
			c-1,5.9-0.4,11.3,1.7,15.8c-8.3,7.5-18.1,13.8-26.1,18.9c-5.7,3.6-10.2,6.5-12.6,8.9c-2.7,2.7-4.2,6.3-4.2,10
			c0,3.8,1.5,7.4,4.2,10c2.8,2.8,6.4,4.2,10,4.2c3.6,0,7.3-1.4,10-4.2c2.3-2.3,5.2-6.9,8.9-12.6c5.1-8,11.3-17.8,18.9-26.1
			c4.4,2.1,9.9,2.8,15.8,1.7c8.3-1.5,16.7-6.1,23.6-13c6.9-6.9,11.5-15.3,13-23.6C150.9,63.4,148.9,55.9,143.9,50.9L143.9,50.9z
			 M75.3,131.2c-3.4,5.3-6.3,9.9-8.4,12c-4.2,4.2-11.1,4.2-15.3,0c-2-2-3.2-4.8-3.2-7.7s1.1-5.6,3.2-7.7c2.1-2.1,6.7-5,12-8.4
			c7.9-5,17.6-11.2,26-18.8c0.6,0.8,1.3,1.6,2,2.4c0.7,0.7,1.5,1.4,2.4,2C86.5,113.5,80.3,123.2,75.3,131.2L75.3,131.2z M134,93.2
			c-6.4,6.4-14.2,10.7-21.8,12c-5.6,1-10.6,0.3-14.6-1.9c-0.1,0-0.1-0.1-0.2-0.1c-1.2-0.7-2.3-1.6-3.3-2.6c-1-1-1.9-2.1-2.6-3.3
			c0-0.1-0.1-0.2-0.1-0.2C86,87.5,90,72.3,101.5,60.7c13.1-13.1,31-16.4,40-7.5C150.5,62.2,147.1,80.1,134,93.2L134,93.2z M134,93.2
			"/>
	</g>
</g>
</svg>
