<?xml version="1.0" encoding="utf-8"?>
<!-- Generator: Adobe Illustrator 19.0.0, SVG Export Plug-In . SVG Version: 6.00 Build 0)  -->
<svg version="1.1" id="Layer_1" xmlns="http://www.w3.org/2000/svg" xmlns:xlink="http://www.w3.org/1999/xlink" x="0px" y="0px"
	 viewBox="0 0 195 194.7" style="enable-background:new 0 0 195 194.7;" xml:space="preserve">
<style type="text/css">
	.st0{fill:#A5CEEE;}
	.st1{fill:#1895C2;}
	.st2{fill:#6ECDFB;}
	.st3{fill:#FF6A2E;}
	.st4{fill:#591200;}
</style>
<circle id="XMLID_76_" class="st0" cx="97.7" cy="97.4" r="97.3"/>
<g id="XMLID_55_">
	<path id="XMLID_73_" class="st1" d="M136.7,71c-2.1,1.6-4.7,2.5-7.6,2.5c-4.2,0-7.9-2-10.2-5.2c-2.3,3.1-6,5.2-10.2,5.2
		c-4.2,0-7.9-2-10.2-5.2c-2.3,3.1-6,5.2-10.2,5.2c-4.2,0-7.9-2-10.2-5.2c-2.3,3.1-6,5.2-10.2,5.2c-2.8,0-5.5-0.9-7.6-2.5
		c2.2-10.7,18.5-19,38.1-19S134.5,60.3,136.7,71L136.7,71z M136.7,71"/>
	<path id="XMLID_70_" class="st2" d="M136.7,71c0.2,0.8,0.3,1.7,0.3,2.5c0,11.9-17.2,21.5-38.4,21.5s-38.4-9.6-38.4-21.5
		c0-0.9,0.1-1.7,0.3-2.5c2.1,1.6,4.7,2.5,7.6,2.5c4.2,0,7.9-2,10.2-5.2c2.3,3.1,6,5.2,10.2,5.2c4.2,0,7.9-2,10.2-5.2
		c2.3,3.1,6,5.2,10.2,5.2c4.2,0,7.9-2,10.2-5.2c2.3,3.1,6,5.2,10.2,5.2C132,73.5,134.6,72.6,136.7,71L136.7,71z M136.7,71"/>
	<path id="XMLID_66_" class="st3" d="M136.7,71c-2.2-10.7-18.5-19-38.1-19s-35.9,8.3-38.1,19c-0.2,0.8-0.3,1.7-0.3,2.5
		c0,11.9,17.2,21.5,38.4,21.5S137,85.4,137,73.5C137,72.7,136.9,71.8,136.7,71L136.7,71z M144.8,68.4c3.1,9.5,11.8,34.1,11.8,40.5
		c0,13-7.8,24.8-21.3,32.4c-10.1,5.7-23.2,8.8-36.8,8.8c-13.6,0-26.6-3.1-36.8-8.8c-13.5-7.6-21.3-19.4-21.3-32.4
		c0-6.4,8.8-31,11.8-40.5c2.1-6.7,7-13.1,14.9-17.6c8.5-4.8,19.6-7.4,31.3-7.4c11.7,0,22.8,2.6,31.3,7.4
		C137.8,55.3,142.7,61.7,144.8,68.4L144.8,68.4z M144.8,68.4"/>
	<path id="XMLID_63_" class="st4" d="M126.7,56.6c-7.5-4.2-17.5-6.6-28.1-6.6c-4.4,0-8.8,0.4-13,1.2c-1,0.2-1.7,1.2-1.5,2.3
		c0.2,1,1.2,1.7,2.3,1.5c3.9-0.8,8-1.2,12.2-1.2c9.9,0,19.2,2.2,26.2,6.1c6.6,3.7,10.3,8.5,10.3,13.5c0,5-3.6,9.8-10.3,13.5
		c-7,3.9-16.3,6.1-26.2,6.1S79.3,91,72.4,87.1c-6.6-3.7-10.3-8.5-10.3-13.5c0-6.5,6.4-12.8,16.7-16.4c1-0.4,1.5-1.5,1.2-2.5
		c-0.4-1-1.5-1.5-2.5-1.2c-12.1,4.3-19.3,11.8-19.3,20.1c0,6.5,4.3,12.5,12.2,16.9C78,94.7,88,97,98.6,97c10.6,0,20.6-2.3,28.1-6.6
		c7.9-4.4,12.2-10.4,12.2-16.9C138.9,67,134.5,61,126.7,56.6L126.7,56.6z M126.7,56.6"/>
	<path id="XMLID_59_" class="st4" d="M149.1,75.1c-1-2.9-1.8-5.4-2.4-7.3c-2.5-7.7-8.1-14.3-15.8-18.7c-8.8-4.9-20.3-7.6-32.3-7.6
		c-12,0-23.5,2.7-32.3,7.6c-7.7,4.3-13.3,11-15.8,18.7c-0.6,1.9-1.5,4.4-2.4,7.3c-5,15-9.5,28.8-9.5,33.8c0,13.7,8.1,26.1,22.3,34.1
		c10.4,5.8,23.8,9.1,37.7,9.1s27.3-3.2,37.7-9.1c14.2-7.9,22.3-20.4,22.3-34.1C158.6,103.9,154.1,90.1,149.1,75.1L149.1,75.1z
		 M134.4,139.6c-9.9,5.5-22.6,8.6-35.8,8.6s-26-3-35.8-8.6c-12.9-7.2-20.3-18.4-20.3-30.7c0-4.8,5.8-22.2,9.3-32.6
		c1-2.9,1.8-5.4,2.4-7.4c2.2-6.8,7.1-12.6,14-16.5c8.2-4.6,19-7.2,30.4-7.2s22.2,2.5,30.4,7.2c6.9,3.8,11.8,9.7,14,16.5
		c0.6,1.9,1.5,4.5,2.4,7.4c3.5,10.4,9.3,27.8,9.3,32.6C154.7,121.2,147.3,132.4,134.4,139.6L134.4,139.6z M134.4,139.6"/>
	<path id="XMLID_56_" class="st4" d="M78.2,66.4c-0.6,0-1.2,0.3-1.6,0.8c-2,2.7-5.2,4.4-8.6,4.4c-1.1,0-1.9,0.9-1.9,1.9
		c0,1.1,0.9,1.9,1.9,1.9c3.8,0,7.5-1.5,10.2-4.2c2.7,2.6,6.4,4.2,10.2,4.2c3.8,0,7.5-1.5,10.2-4.2c2.7,2.6,6.4,4.2,10.2,4.2
		c3.8,0,7.5-1.5,10.2-4.2c2.7,2.6,6.4,4.2,10.2,4.2c1.1,0,1.9-0.9,1.9-1.9c0-1.1-0.9-1.9-1.9-1.9c-3.4,0-6.6-1.6-8.6-4.4
		c-0.4-0.5-0.9-0.8-1.6-0.8c-0.6,0-1.2,0.3-1.6,0.8c-2,2.7-5.2,4.4-8.6,4.4c-3.4,0-6.6-1.6-8.6-4.4c-0.4-0.5-0.9-0.8-1.6-0.8
		c-0.6,0-1.2,0.3-1.6,0.8c-2.1,2.8-5.2,4.4-8.6,4.4c-3.4,0-6.6-1.6-8.6-4.4C79.4,66.7,78.8,66.4,78.2,66.4L78.2,66.4z M78.2,66.4"/>
</g>
</svg>
