<?xml version="1.0" encoding="utf-8"?>
<!-- Generator: Adobe Illustrator 19.0.0, SVG Export Plug-In . SVG Version: 6.00 Build 0)  -->
<svg version="1.1" id="Layer_1" xmlns="http://www.w3.org/2000/svg" xmlns:xlink="http://www.w3.org/1999/xlink" x="0px" y="0px"
	 viewBox="0 0 195 194.7" style="enable-background:new 0 0 195 194.7;" xml:space="preserve">
<style type="text/css">
	.st0{fill:#A5CEEE;}
	.st1{fill:#1895C2;}
	.st2{fill:#6ECDFB;}
	.st3{fill:#FFD608;}
	.st4{fill:#FFF2B1;}
	.st5{fill:#591200;}
</style>
<circle id="XMLID_108_" class="st0" cx="97.5" cy="97.4" r="97.3"/>
<g>
	<path class="st1" d="M48.2,111.7v23h-4.7c-1.7,0-3.1-1.4-3.1-3.1v-19.9H48.2z M48.2,111.7"/>
	<path class="st1" d="M154.5,111.7v19.9c0,1.7-1.4,3.1-3.1,3.1h-4.7v-23H154.5z M154.5,111.7"/>
	<path class="st2" d="M48.2,111.7v23c0,6.9,5.6,12.4,12.4,12.4h73.7c6.9,0,12.4-5.6,12.4-12.4v-23H48.2z M48.2,111.7"/>
	<rect id="XMLID_101_" x="61.2" y="96.7" class="st1" width="15" height="15"/>
	<rect id="XMLID_100_" x="118.8" y="96.7" class="st1" width="15" height="15"/>
	<path class="st3" d="M154.5,96.7h-20.7v15h20.7c1.7,0,3.1-1.4,3.1-3.1v-8.8C157.6,98.1,156.3,96.7,154.5,96.7L154.5,96.7z
		 M154.5,96.7"/>
	<rect id="XMLID_97_" x="76.2" y="96.7" class="st3" width="42.7" height="15"/>
	<path class="st3" d="M40.5,96.7c-1.7,0-3.1,1.4-3.1,3.1v8.8c0,1.7,1.4,3.1,3.1,3.1h20.7v-15H40.5z M40.5,96.7"/>
	<path class="st3" d="M48.2,73.8v23h-7.8V76.9c0-1.7,1.4-3.1,3.1-3.1H48.2z M48.2,73.8"/>
	<path class="st3" d="M154.5,76.9v19.9h-7.8v-23h4.7C153.1,73.8,154.5,75.2,154.5,76.9L154.5,76.9z M154.5,76.9"/>
	<path class="st4" d="M134.4,61.4H60.6c-6.9,0-12.4,5.6-12.4,12.4v23h98.6v-23C146.8,66.9,141.2,61.4,134.4,61.4L134.4,61.4z
		 M134.4,61.4"/>
	<path class="st5" d="M156.5,95.2V76.9c0-2.8-2.3-5-5-5h-2.9c-1-7-7-12.4-14.2-12.4h-21.4v-8.7c0-2.8-2.3-5-5-5H87.1
		c-2.8,0-5,2.3-5,5v8.7H60.6c-7.3,0-13.3,5.4-14.2,12.4h-2.9c-2.8,0-5,2.3-5,5v18.3c-1.8,0.8-3.1,2.6-3.1,4.7v8.8
		c0,2.1,1.3,3.9,3.1,4.7v18.3c0,2.8,2.3,5,5,5h2.9c1,7,7,12.4,14.2,12.4h73.7c7.3,0,13.3-5.4,14.2-12.4h2.9c2.8,0,5-2.3,5-5v-18.3
		c1.8-0.8,3.1-2.6,3.1-4.7v-8.8C159.6,97.8,158.3,96,156.5,95.2L156.5,95.2z M135.8,109.8V98.7h18.8c0.6,0,1.2,0.5,1.2,1.2v8.8
		c0,0.6-0.5,1.2-1.2,1.2H135.8z M152.6,76.9v17.9h-3.9V75.7h2.7C152.1,75.7,152.6,76.3,152.6,76.9L152.6,76.9z M85.9,50.7
		c0-0.6,0.5-1.2,1.2-1.2h20.8c0.6,0,1.2,0.5,1.2,1.2v8.7H85.9V50.7z M60.6,63.3h73.7c5.8,0,10.5,4.7,10.5,10.5v21h-13.6
		c-1.1,0-1.9,0.9-1.9,1.9c0,1.1,0.9,1.9,1.9,1.9h0.6v11.1h-11.1V98.7h0.6c1.1,0,1.9-0.9,1.9-1.9c0-1.1-0.9-1.9-1.9-1.9H73.6
		c-1.1,0-1.9,0.9-1.9,1.9c0,1.1,0.9,1.9,1.9,1.9h0.6v11.1H63.1V98.7h0.6c1.1,0,1.9-0.9,1.9-1.9c0-1.1-0.9-1.9-1.9-1.9H50.2v-21
		C50.2,68,54.9,63.3,60.6,63.3L60.6,63.3z M78.1,109.8V98.7h38.8v11.1H78.1z M40.5,109.8c-0.6,0-1.2-0.5-1.2-1.2v-8.8
		c0-0.6,0.5-1.2,1.2-1.2h18.8v11.1H40.5z M43.6,75.7h2.7v19.1h-3.9V76.9C42.4,76.3,42.9,75.7,43.6,75.7L43.6,75.7z M42.4,131.6
		v-17.9h3.9v19.1h-2.7C42.9,132.8,42.4,132.2,42.4,131.6L42.4,131.6z M134.4,145.2H60.6c-5.8,0-10.5-4.7-10.5-10.5v-21h94.7v21
		C144.8,140.5,140.1,145.2,134.4,145.2L134.4,145.2z M151.4,132.8h-2.7v-19.1h3.9v17.9C152.6,132.2,152.1,132.8,151.4,132.8
		L151.4,132.8z M151.4,132.8"/>
	<path class="st5" d="M63.7,88.3c1.1,0,1.9-0.9,1.9-1.9v-14c0-1.1-0.9-1.9-1.9-1.9c-1.1,0-1.9,0.9-1.9,1.9v14
		C61.8,87.5,62.7,88.3,63.7,88.3L63.7,88.3z M63.7,88.3"/>
	<path class="st5" d="M80.6,88.3c1.1,0,1.9-0.9,1.9-1.9v-14c0-1.1-0.9-1.9-1.9-1.9c-1.1,0-1.9,0.9-1.9,1.9v14
		C78.7,87.5,79.6,88.3,80.6,88.3L80.6,88.3z M80.6,88.3"/>
	<path class="st5" d="M97.5,88.3c1.1,0,1.9-0.9,1.9-1.9v-14c0-1.1-0.9-1.9-1.9-1.9c-1.1,0-1.9,0.9-1.9,1.9v14
		C95.6,87.5,96.4,88.3,97.5,88.3L97.5,88.3z M97.5,88.3"/>
	<path class="st5" d="M114.4,88.3c1.1,0,1.9-0.9,1.9-1.9v-14c0-1.1-0.9-1.9-1.9-1.9c-1.1,0-1.9,0.9-1.9,1.9v14
		C112.4,87.5,113.3,88.3,114.4,88.3L114.4,88.3z M114.4,88.3"/>
	<path class="st5" d="M131.3,88.3c1.1,0,1.9-0.9,1.9-1.9v-14c0-1.1-0.9-1.9-1.9-1.9s-1.9,0.9-1.9,1.9v14
		C129.3,87.5,130.2,88.3,131.3,88.3L131.3,88.3z M131.3,88.3"/>
</g>
</svg>
